# xmcd CD database file
#
# Track frame offsets:
#	150
#	19668
#	34808
#	48836
#	72246
#	91035
#	109851
#	131446
#	152216
#	175211
#	193906
#	212370
#	230647
#	246549
#
# Disc length: 3504 seconds
#
# Revision: 3
# Processed by: cddbd v1.5.2PL0 Copyright (c) Steve Scherf et al.
# Submitted via: CDex 1.70beta2
#
DISCID=bd0dae0e
DTITLE=Suzanne Ciani - Pure Romance
DYEAR=2003
DGENRE=New Age
TTITLE0=Andalusian Dream (from Pianissimo II)
TTITLE1=Yang Ming Shen (from Turning)
TTITLE2=The Enchantress (from Turning)
TTITLE3=Sailing to Byzantium (from Suzanne Ciani and the Wave: Live!)
TTITLE4=Turning (from Turning)
TTITLE5=The Velocity of Love (from Suzanne Ciani and the Wave: Live!)
TTITLE6=Meeting Mozart (from Dream Suite)
TTITLE7=Inverness (from Suzanne Ciani and the Wave: Live!)
TTITLE8=Full Moon Sonata (from Dream Suite)
TTITLE9=Time Stops (from Pianissimo II)
TTITLE10=Til Times and Times Are Done (from Dream Suite)
TTITLE11=Waltz for Julia (from Turning)
TTITLE12=Timeless (from Pianissimo II)
TTITLE13=Midnight Rendezvous (from Turning)
EXTD=YEAR: 2003
EXTT0=
EXTT1=
EXTT2=
EXTT3=
EXTT4=
EXTT5=
EXTT6=
EXTT7=
EXTT8=
EXTT9=
EXTT10=
EXTT11=
EXTT12=
EXTT13=
PLAYORDER=
